# xmcd CD database file
#
# Track frame offsets:
#	150
#	21197
#	38785
#	59455
#	77452
#	95537
#	109797
#	129535
#	146567
#	162990
#	182345
#	197430
#
# Disc length: 2814 seconds
#
# Revision: 6
# Processed by: cddbd v1.5.2PL0 Copyright (c) Steve Scherf et al.
# Submitted via: CDex 2.16
#
DISCID=960afc0c
DTITLE=Jose Claudio Machado - Cantar Galponeiro
DYEAR=1992
DGENRE=Gaucho Nativ
TTITLE0=Cantar Galponeiro
TTITLE1=Aquele Moco
TTITLE2=Chasque Pra Don Munhoz
TTITLE3=Cancao Do Verde
TTITLE4=Fronteiros
TTITLE5=Picaco Velho
TTITLE6=Aurora Morena
TTITLE7=Pelos
TTITLE8=Essencia Pampeana
TTITLE9=Poncho Molhado
TTITLE10=De Reflexao
TTITLE11=Gineteando
EXTD=YEAR: 1992
EXTT0=Oacy Rosenhaim E Nilo Brum
EXTT1=Jos  Athan sio Pinto E Jo o De Almeida Neto
EXTT2=Gaspar Machado E Airton Pimentel
EXTT3=Mauro Moraes
EXTT4=Bruno Le o E M rio Barros
EXTT5=Jos  Mendes
EXTT6=Valdo Nobrega, Nilo Brum E Jos  Cl udio Machado
EXTT7=Jos  Cl udio Machado
EXTT8=Nilo Brum
EXTT9=Jos  Retamozzo E Ewerton Ferreira
EXTT10=Paulo De Freitas Mendon a E Jorge Trindade
EXTT11=S rgio Duarte Tarouco E Nelcy Vargas
PLAYORDER=
